<?xml version="1.0" encoding="UTF-8"?><svg id="Layer_1" xmlns="http://www.w3.org/2000/svg" viewBox="0 0 1080 1080"><defs><style>.cls-1{stroke-linecap:square;}.cls-1,.cls-2,.cls-3,.cls-4,.cls-5,.cls-6{stroke-miterlimit:10;}.cls-1,.cls-2,.cls-3,.cls-6{stroke-width:20.99px;}.cls-1,.cls-2,.cls-6{stroke:#ef8481;}.cls-1,.cls-3,.cls-6{fill:none;}.cls-2{fill:#fff;}.cls-2,.cls-3,.cls-6{stroke-linecap:round;}.cls-7{letter-spacing:-.02em;}.cls-8{letter-spacing:0em;}.cls-9{letter-spacing:-.02em;}.cls-3{stroke:#04bb8a;}.cls-10{letter-spacing:0em;}.cls-11{letter-spacing:-.03em;}.cls-12{letter-spacing:-.11em;}.cls-4{font-family:Lato-Light, Lato;font-size:54.97px;font-weight:300;}.cls-4,.cls-5{fill:#3e434e;stroke:#3e434e;}.cls-5{stroke-width:3.23px;}.cls-13{letter-spacing:0em;}</style></defs><text class="cls-4" transform="translate(453.32 675.88)"><tspan class="cls-12" x="0" y="0">Y</tspan><tspan class="cls-13" x="26.91" y="0">ou</tspan><tspan class="cls-9" x="87.79" y="0">r</tspan><tspan x="106.04" y="0"> </tspan><tspan class="cls-7" x="120.97" y="0">H</tspan><tspan class="cls-8" x="161.59" y="0">ealth</tspan><tspan class="cls-11" x="278.08" y="0"> </tspan><tspan x="291.19" y="0">Assista</tspan><tspan class="cls-10" x="454.98" y="0">n</tspan><tspan x="484.85" y="0">t</tspan></text><g><path class="cls-5" d="m455.08,389.64h125.44l-5.45,31.12h-80.84v57.43h74.75v30.8h-74.75v95.28h-39.14v-214.62Z"/><path class="cls-5" d="m686.97,594.14c-10.91,9.47-28.04,10.63-44.08,10.63-33.68,0-51.85-19.47-51.85-48.85s23.42-48.64,62.24-48.64c11.87,0,22.46.63,30.48,2.21v-12c0-17.37-6.1-28.74-27.59-28.74-15.4,0-28.23,2.84-43.31,7.26l-8.02-29.06c16.68-5.05,34.65-8.53,52.61-8.53,39.78,0,64.16,21.16,64.16,60.01v107.07h-33.04l-1.6-11.37Zm-3.21-59.69c-6.74-1.26-14.12-2.21-24.7-2.21-19.25,0-28.87,8.21-28.87,22.74s7.7,24.32,23.1,24.32c10.91,0,20.53-4.42,30.48-12v-32.85Z"/><path class="cls-5" d="m757.82,442.91v161.35h37.85v-165.4l-37.85,4.05Z"/><path class="cls-5" d="m830.32,577.63l74.11-108.43h-70.9l-3.53-30.48h115.81l4.81,25.34-74.11,109.4h77.32v30.8h-123.51v-26.63Z"/></g><g><line class="cls-2" x1="183.67" y1="479.75" x2="146.69" y2="479.75"/><g><path class="cls-3" d="m175.12,519.85c.11-36.34,18.23-55.18,18.23-55.18,0,0,38.44-45.07,83.75,4.2l2.18,2.06,2.06-2.06c45.31-49.27,82.26-4.2,82.26-4.2,0,0,38.56,38.54,6.98,111.69-21.61,50.06-65.72,58.87-91.42,59.45l-2.7-.1,2.81.1c-22.48-.5-59.06-7.31-82.33-42.54"/><path class="cls-3" d="m280.16,468.16s-8.22-47.77,26.68-68.03"/></g><path class="cls-6" d="m146.69,479.75s-23.69.47-23.69,20.68c0,.97.04,1.91.12,2.79,1.55,17.54,17.66,18.76,17.66,18.76h131.69c3.61,0,6.53,2.44,6.53,5.44v57.16c0,3.01-2.92,5.44-6.53,5.44h-117.14s-32.33.83-32.33-26.87v-62.73"/><g><line class="cls-1" x1="243.1" y1="587.09" x2="243.1" y2="564.8"/><line class="cls-1" x1="202.24" y1="587.09" x2="202.24" y2="564.8"/><line class="cls-1" x1="161.38" y1="587.09" x2="161.38" y2="564.8"/></g></g></svg>